# xmcd
#
# Track frame offsets: 
#        150
#        10691
#        22281
#        34568
#        47008
#        59389
#        72130
#        84544
#        98077
#        109575
#        120695
#        132529
#        144445
#        155022
#        167703
#        179115
#        188500
#        198530
#        211157
#        223047
#        235377
#        245930
#        256405
#        268558
#
# Disc length: 3736 seconds
#
# Revision: 1
# Processed by: cddbd v1.5.2PL0 Copyright (c) Steve Scherf et al.
# Submitted via: ExactAudioCopy v0.99pb5
#
DISCID=640e9618
DTITLE=Various Artist - Shake Your Money Maker - Early Black Rock'n Roll 1948
DTITLE=1958
DYEAR=2008
DGENRE=Rock and Roll
TTITLE0=Ike Turner's Kings of Rhythm - You've Got to Lose
TTITLE1=Howlin' Wolf - You Gonna Wreck My Life
TTITLE2=Etta James - W-O-M-A-N
TTITLE3=Shakey Jake - Roll Your Moneymaker
TTITLE4=Lazy Lester - Sugar Coated Love
TTITLE5=Rufus Thomas - Tiger Man
TTITLE6=John J. Moses - Night Out
TTITLE7=Andre Williams - I'm Going Down to Tijuana
TTITLE8=Ruth Brown - Please Don't Freeze
TTITLE9=Bill Davis Trio - Bring the Money in
TTITLE10=Big Maybelle - Don't Leave Poor Me
TTITLE11=Johnny "Guitar" Watson - Space Guitar
TTITLE12=Ike Turner - She Made My Blood Run Cold
TTITLE13=Slim Harpo - I Got Love if You Want it
TTITLE14=Otis Rush - Keep on Loving My Baby
TTITLE15=Sister Rosetta Tharpe - Jericho
TTITLE16=Billy the Kid Emerson - If Lovin' is Believing
TTITLE17=Bo Diddley - Heart-O-Matic Love
TTITLE18=Ann Cole with the Suburbans - Got My Mojo Working
TTITLE19=Magic Sam - 21 days in Jail
TTITLE20=Chuck Berry - Deep Feeling
TTITLE21=Jess Stone - Crawfish
TTITLE22=Joe Tex - Pneumonia
TTITLE23=Junior Parker - Love My Baby
EXTD=
EXTT0=
EXTT1=
EXTT2=
EXTT3=
EXTT4=
EXTT5=
EXTT6=
EXTT7=
EXTT8=
EXTT9=
EXTT10=
EXTT11=
EXTT12=
EXTT13=
EXTT14=
EXTT15=
EXTT16=
EXTT17=
EXTT18=
EXTT19=
EXTT20=
EXTT21=
EXTT22=
EXTT23=
PLAYORDER=
